<svg width="20" height="15" viewBox="0 0 20 15" fill="none" xmlns="http://www.w3.org/2000/svg">
<path d="M1.75 2.99219H18.25C19.009 2.99219 19.625 2.36569 19.625 1.59375C19.625 0.821813 19.009 0.195312 18.25 0.195312H1.75C0.991 0.195312 0.375 0.821813 0.375 1.59375C0.375 2.36569 0.991 2.99219 1.75 2.99219ZM18.25 5.78906H1.75C0.991 5.78906 0.375 6.41556 0.375 7.1875C0.375 7.95944 0.991 8.58594 1.75 8.58594H18.25C19.009 8.58594 19.625 7.95944 19.625 7.1875C19.625 6.41556 19.009 5.78906 18.25 5.78906ZM18.25 11.3828H1.75C0.991 11.3828 0.375 12.0093 0.375 12.7812C0.375 13.5532 0.991 14.1797 1.75 14.1797H18.25C19.009 14.1797 19.625 13.5532 19.625 12.7812C19.625 12.0093 19.009 11.3828 18.25 11.3828Z" fill="#119DA4"/>
</svg>
